<svg width="50" height="51" viewBox="0 0 50 51" fill="none" xmlns="http://www.w3.org/2000/svg">
<circle cx="25" cy="25.6799" r="25" fill="#B5E45E" fill-opacity="0.1"/>
<path d="M27.85 35.3713V36.185C27.85 36.2375 27.805 36.2787 27.7563 36.2787H18.475C18.4225 36.2787 18.385 36.2337 18.385 36.185V35.3713C18.385 35.3188 18.43 35.2812 18.475 35.2812H27.7525C27.805 35.2812 27.85 35.3225 27.85 35.3713Z" fill="#569131"/>
<path d="M35.53 20.371C35.5187 20.3635 35.5075 20.3523 35.5 20.3373C35.4437 20.2623 35.425 20.1723 35.4512 20.0823C35.4512 20.0785 35.4512 20.0785 35.455 20.0748C35.5375 19.7748 35.5825 19.4635 35.5825 19.1523C35.5825 18.8335 35.5375 18.5223 35.455 18.2335C35.4512 18.2298 35.4512 18.2298 35.4512 18.226C35.4362 18.181 35.4362 18.136 35.4437 18.091C35.4475 18.0798 35.4512 18.0648 35.455 18.0535C35.4587 18.0385 35.4662 18.0235 35.4737 18.0085C35.4812 17.9898 35.4925 17.971 35.5075 17.956C35.5225 17.9335 35.545 17.9148 35.5675 17.896L36.3212 17.3748L35.8112 16.5048L34.9862 16.891C34.9637 16.8985 34.9412 16.906 34.915 16.9135C34.8812 16.921 34.8437 16.921 34.81 16.9135C34.8062 16.9135 34.8025 16.9098 34.7987 16.9135C34.7837 16.9098 34.7687 16.906 34.7575 16.8985C34.7387 16.891 34.72 16.8835 34.705 16.8723C34.6825 16.861 34.6637 16.846 34.645 16.8273C34.21 16.3698 33.6587 16.0473 33.0587 15.901C33.055 15.901 33.0475 15.8973 33.0437 15.8973C32.9837 15.8823 32.935 15.8523 32.8975 15.811C32.8825 15.7923 32.8675 15.7735 32.8562 15.751C32.8487 15.7398 32.845 15.7285 32.8412 15.7173C32.83 15.691 32.8225 15.6648 32.8187 15.6385L32.7437 14.7273H31.735L31.66 15.6348C31.6487 15.7473 31.5775 15.841 31.4762 15.8785C31.465 15.886 31.45 15.8898 31.435 15.8935C31.4275 15.8935 31.42 15.8973 31.4125 15.8973C30.8125 16.0473 30.2725 16.366 29.8337 16.8235C29.8187 16.8385 29.8037 16.8535 29.785 16.861C29.7812 16.8685 29.7737 16.8723 29.7662 16.8723C29.7475 16.8835 29.7287 16.891 29.71 16.8985C29.68 16.9098 29.6462 16.9135 29.62 16.9135C29.6162 16.9135 29.6162 16.9135 29.6125 16.9135C29.5937 16.9135 29.575 16.9098 29.5562 16.906C29.5337 16.9023 29.5112 16.8948 29.4925 16.8873L28.6675 16.4973L28.1575 17.371L28.9075 17.8923C28.93 17.9073 28.9487 17.926 28.9637 17.9448C28.9787 17.9598 28.99 17.9785 29.0012 18.001C29.0237 18.0423 29.035 18.0873 29.035 18.136C29.035 18.1623 29.0312 18.1923 29.0237 18.2148C29.0237 18.2223 29.02 18.226 29.02 18.2335C28.9675 18.4098 28.9337 18.5898 28.915 18.766C28.9 18.8898 28.8925 19.0173 28.8925 19.141C28.8925 19.366 28.915 19.5835 28.96 19.7973C28.9637 19.8123 28.9675 19.8273 28.9675 19.846C28.9862 19.921 29.005 19.996 29.0275 20.071C29.0425 20.1198 29.0425 20.161 29.035 20.206C29.0312 20.221 29.0275 20.2323 29.0237 20.2435C29.0125 20.2773 28.9975 20.3073 28.9787 20.3298C28.9712 20.3448 28.96 20.356 28.9487 20.3635C28.9375 20.3748 28.9225 20.386 28.9112 20.3973L28.1575 20.9185L28.6675 21.796L29.455 21.4248C29.4662 21.4173 29.4812 21.4098 29.4925 21.406C29.5112 21.3948 29.5337 21.3873 29.5562 21.3835C29.5787 21.3798 29.5975 21.376 29.62 21.376C29.65 21.376 29.6837 21.3835 29.71 21.391C29.7287 21.3985 29.7475 21.406 29.7662 21.4173C29.7737 21.421 29.7812 21.4248 29.785 21.4285C29.8037 21.4398 29.8187 21.4548 29.8337 21.4698C30.265 21.9235 30.8162 22.246 31.42 22.396C31.4237 22.396 31.4312 22.3998 31.435 22.3998C31.465 22.4073 31.495 22.4185 31.5175 22.4373C31.5325 22.4448 31.5475 22.456 31.5625 22.471C31.57 22.4748 31.5737 22.4823 31.5812 22.4898C31.5887 22.4935 31.5925 22.501 31.5962 22.5085C31.6075 22.5198 31.615 22.5348 31.6225 22.5498C31.63 22.561 31.6375 22.5723 31.6412 22.5835C31.6487 22.606 31.6525 22.6285 31.6562 22.651C31.66 22.6548 31.66 22.6623 31.66 22.666L31.735 23.5773H32.7475L32.8225 22.666C32.8225 22.6623 32.8225 22.6548 32.8262 22.651C32.8262 22.636 32.83 22.6248 32.8337 22.6098C32.8375 22.591 32.845 22.5723 32.8562 22.5573C32.8637 22.5423 32.875 22.5235 32.8862 22.5085C32.9087 22.4785 32.935 22.4523 32.965 22.4373C32.9875 22.4185 33.0175 22.4073 33.0437 22.3998C33.0512 22.3998 33.055 22.396 33.0625 22.396C33.67 22.2423 34.2137 21.9273 34.645 21.4773C34.66 21.4623 34.675 21.4473 34.6937 21.436C34.6975 21.4323 34.705 21.4285 34.7125 21.4248C34.7312 21.4135 34.75 21.406 34.7687 21.3985C34.7987 21.391 34.8325 21.3835 34.8587 21.3835C34.8812 21.3835 34.9 21.3873 34.9225 21.391C34.945 21.3948 34.9675 21.4023 34.9862 21.4135C34.9975 21.4173 35.0125 21.4248 35.0237 21.4323L35.815 21.8035L36.325 20.9298L35.575 20.4085C35.5525 20.3935 35.5412 20.3823 35.53 20.371ZM33.9287 20.8435C33.475 21.2935 32.875 21.541 32.2375 21.541C32.2337 21.541 32.2337 21.541 32.2337 21.541C30.9137 21.541 29.8375 20.4648 29.8412 19.1448C29.8412 17.8248 30.9175 16.7523 32.2375 16.7523C32.8787 16.7523 33.4787 16.9998 33.9325 17.4535C34.3862 17.9073 34.63 18.5073 34.63 19.1485C34.6337 19.7898 34.3825 20.3898 33.9287 20.8435Z" fill="#569131"/>
<path d="M32.65 24.1511V32.2136C32.65 32.5173 32.4025 32.7573 32.1025 32.7573H14.1325C13.8287 32.7573 13.585 32.5173 13.585 32.2136V19.6061C13.585 19.3023 13.8287 19.0586 14.1325 19.0586H28.3112C28.3075 19.0886 28.3075 19.1148 28.3075 19.1411C28.3075 19.2836 28.315 19.4261 28.3337 19.5648H14.6237C14.4625 19.5648 14.3312 19.6961 14.3312 19.8573V31.9586C14.3312 32.1273 14.4625 32.2548 14.6237 32.2548H31.615C31.7762 32.2548 31.9075 32.1273 31.9075 31.9623V24.1511H32.65Z" fill="#569131"/>
<path d="M32.2375 21.5412C32.8787 21.5412 33.4787 21.2937 33.9325 20.8437C34.3862 20.3899 34.6337 19.7899 34.6337 19.1487C34.6337 18.5074 34.39 17.9074 33.9362 17.4537C33.4825 16.9999 32.8825 16.7524 32.2412 16.7524C30.9212 16.7524 29.845 17.8249 29.845 19.1449C29.8412 20.4687 30.9175 21.5412 32.2375 21.5412ZM32.2412 17.3374C32.725 17.3374 33.1787 17.5249 33.52 17.8662C33.8612 18.2112 34.045 18.6649 34.045 19.1449C34.045 19.6287 33.8537 20.0824 33.5162 20.4237C33.1712 20.7649 32.7175 20.9487 32.2412 20.9487C32.2375 20.9487 32.2375 20.9487 32.2375 20.9487C31.24 20.9487 30.4262 20.1349 30.43 19.1374C30.43 18.1474 31.24 17.3374 32.2412 17.3374Z" fill="#569131"/>
<path d="M14.1325 33.3461H19.9225L19.435 34.6961H18.475C18.1 34.6961 17.8 34.9998 17.8 35.3711V36.1848C17.8 36.5598 18.1037 36.8636 18.475 36.8636H27.7525C28.1275 36.8636 28.4312 36.5561 28.4312 36.1848V35.3711C28.4312 34.9961 28.1237 34.6961 27.7525 34.6961H26.7925L26.305 33.3461H32.0987C32.7212 33.3461 33.2275 32.8398 33.2275 32.2173V24.0461C33.2687 24.0011 33.2912 23.9486 33.2987 23.8848L33.3812 22.9098C33.955 22.7411 34.4762 22.4373 34.9112 22.0286L35.7962 22.4448C35.8375 22.4673 35.8787 22.4748 35.92 22.4748C36.0212 22.4748 36.1187 22.4223 36.1712 22.3286L36.9512 20.9861C37.0262 20.8548 36.9925 20.6861 36.8687 20.5998L36.0625 20.0411C36.1337 19.7523 36.1637 19.4561 36.1637 19.1598C36.1637 18.8561 36.13 18.5598 36.0625 18.2748L36.8725 17.7198C36.9962 17.6336 37.0337 17.4648 36.955 17.3336L36.1787 15.9873C36.1037 15.8561 35.9425 15.8036 35.8037 15.8711L34.915 16.2873C34.4762 15.8748 33.955 15.5711 33.3887 15.3986L33.31 14.4236C33.295 14.2698 33.1712 14.1536 33.0175 14.1536H31.465C31.315 14.1536 31.1875 14.2698 31.1725 14.4236L31.0937 15.3948C30.5275 15.5673 30.0025 15.8673 29.5637 16.2836L28.675 15.8523C28.54 15.7848 28.375 15.8373 28.3 15.9686L27.5237 17.3111C27.4487 17.4423 27.4825 17.6111 27.61 17.6973L28.4125 18.2523C28.3937 18.3236 28.3787 18.3948 28.3675 18.4698H14.1325C13.51 18.4736 13 18.9798 13 19.6061V32.2136C13 32.8398 13.51 33.3461 14.1325 33.3461ZM27.85 35.3711V36.1848C27.85 36.2373 27.805 36.2786 27.7562 36.2786H18.475C18.4225 36.2786 18.385 36.2336 18.385 36.1848V35.3711C18.385 35.3186 18.43 35.2811 18.475 35.2811H27.7525C27.805 35.2811 27.85 35.3223 27.85 35.3711ZM26.1737 34.6961H20.0612L20.5487 33.3461H25.6862L26.1737 34.6961ZM28.1612 17.3711L28.6712 16.4973L29.4963 16.8873C29.515 16.8948 29.5375 16.9023 29.56 16.9061C29.5787 16.9098 29.5975 16.9136 29.6162 16.9136C29.62 16.9136 29.62 16.9136 29.6237 16.9136C29.6537 16.9136 29.6875 16.9098 29.7137 16.8986C29.7325 16.8911 29.755 16.8836 29.77 16.8723C29.7775 16.8723 29.785 16.8686 29.7887 16.8611C29.8075 16.8536 29.8225 16.8386 29.8375 16.8236C30.2762 16.3661 30.8162 16.0473 31.4162 15.8973H31.42C31.4275 15.8973 31.435 15.8936 31.4425 15.8936C31.4575 15.8898 31.4687 15.8861 31.4837 15.8786C31.5812 15.8373 31.6562 15.7473 31.6675 15.6348L31.7425 14.7273H32.7512L32.8262 15.6386C32.83 15.6686 32.8375 15.6948 32.8487 15.7173C32.8525 15.7286 32.8562 15.7398 32.8637 15.7511C32.875 15.7736 32.8862 15.7923 32.905 15.8111C32.9425 15.8561 32.9912 15.8861 33.0512 15.8973C33.055 15.8973 33.0625 15.9011 33.0662 15.9011C33.6662 16.0473 34.2175 16.3698 34.6525 16.8273C34.6712 16.8461 34.69 16.8611 34.7125 16.8723C34.7275 16.8836 34.7462 16.8911 34.765 16.8986C34.78 16.9023 34.795 16.9098 34.8062 16.9136C34.81 16.9098 34.8137 16.9136 34.8175 16.9136C34.8362 16.9173 34.8512 16.9173 34.87 16.9173C34.8887 16.9173 34.9075 16.9173 34.9262 16.9136C34.9525 16.9061 34.975 16.8986 34.9975 16.8911L35.8112 16.5048L36.3212 17.3823L35.5675 17.9036C35.545 17.9223 35.5225 17.9411 35.5075 17.9636C35.4925 17.9786 35.4812 17.9973 35.4737 18.0161C35.4662 18.0311 35.4587 18.0461 35.455 18.0611C35.4512 18.0723 35.4475 18.0836 35.4437 18.0986C35.4362 18.1436 35.4362 18.1886 35.4512 18.2336C35.4512 18.2373 35.4512 18.2373 35.455 18.2411C35.5375 18.5298 35.5825 18.8411 35.5825 19.1598C35.5825 19.4711 35.5375 19.7823 35.455 20.0823C35.4512 20.0861 35.4512 20.0861 35.4512 20.0898C35.425 20.1798 35.4437 20.2736 35.5 20.3448C35.5075 20.3561 35.5187 20.3673 35.53 20.3786C35.5412 20.3898 35.5525 20.4011 35.5675 20.4123L36.3175 20.9336L35.8075 21.8073L35.0162 21.4361C35.005 21.4286 34.99 21.4211 34.9787 21.4173C34.9562 21.4061 34.9375 21.3986 34.915 21.3948C34.8962 21.3836 34.8775 21.3798 34.855 21.3798C34.825 21.3798 34.7912 21.3873 34.765 21.3948C34.7462 21.4023 34.7275 21.4098 34.7087 21.4211C34.7012 21.4248 34.6937 21.4286 34.69 21.4323C34.6712 21.4436 34.6562 21.4586 34.6412 21.4736C34.21 21.9236 33.6662 22.2386 33.0587 22.3923C33.0512 22.3923 33.0475 22.3961 33.04 22.3961C33.01 22.4036 32.98 22.4148 32.9612 22.4336C32.9537 22.4373 32.9462 22.4411 32.9387 22.4486C32.9312 22.4561 32.9237 22.4598 32.9162 22.4673C32.9012 22.4786 32.89 22.4898 32.8787 22.5048C32.8675 22.5198 32.8562 22.5386 32.8487 22.5536C32.8375 22.5686 32.83 22.5873 32.8262 22.6061C32.8225 22.6211 32.8187 22.6323 32.8187 22.6473C32.815 22.6511 32.815 22.6586 32.815 22.6623L32.74 23.5736H31.7275L31.6525 22.6623C31.6525 22.6586 31.6525 22.6511 31.6487 22.6473C31.645 22.6248 31.6412 22.6023 31.6337 22.5798C31.63 22.5686 31.6225 22.5573 31.615 22.5461C31.6075 22.5311 31.6 22.5161 31.5887 22.5048C31.585 22.4973 31.5812 22.4898 31.5737 22.4861C31.5662 22.4786 31.5625 22.4711 31.555 22.4673C31.54 22.4523 31.525 22.4411 31.51 22.4336C31.4837 22.4148 31.4537 22.4036 31.4275 22.3961C31.4237 22.3961 31.4162 22.3923 31.4125 22.3923C30.8087 22.2423 30.2575 21.9198 29.8262 21.4661C29.8112 21.4511 29.7962 21.4361 29.7775 21.4248C29.7737 21.4211 29.7662 21.4173 29.7587 21.4136C29.74 21.4023 29.7212 21.3948 29.7025 21.3873C29.6725 21.3798 29.6387 21.3723 29.6125 21.3723C29.59 21.3723 29.5712 21.3761 29.5487 21.3798C29.5262 21.3836 29.5037 21.3911 29.485 21.4023C29.4737 21.4061 29.4587 21.4136 29.4475 21.4211L28.66 21.7923L28.15 20.9148L28.9037 20.3936C28.915 20.3823 28.93 20.3711 28.9412 20.3598C28.9525 20.3523 28.9637 20.3411 28.9712 20.3261C28.99 20.2998 29.005 20.2698 29.0162 20.2398C29.02 20.2286 29.0238 20.2173 29.0275 20.2023C29.035 20.1573 29.035 20.1161 29.02 20.0673C28.9975 19.9923 28.9787 19.9211 28.96 19.8423C28.96 19.8236 28.9562 19.8086 28.9525 19.7936C28.9075 19.5798 28.885 19.3623 28.885 19.1373C28.885 19.0136 28.8925 18.8861 28.9075 18.7623C28.9262 18.5823 28.9637 18.4023 29.0125 18.2298C29.0125 18.2223 29.0162 18.2186 29.0162 18.2111C29.0237 18.1848 29.0275 18.1548 29.0275 18.1323C29.0275 18.0836 29.0162 18.0386 28.9937 17.9973C28.9825 17.9748 28.9712 17.9561 28.9562 17.9411C28.9412 17.9223 28.9225 17.9036 28.9 17.8886L28.1612 17.3711ZM27.5162 20.9711L28.2925 22.3173C28.3487 22.4111 28.4462 22.4636 28.5437 22.4636C28.5887 22.4636 28.6262 22.4561 28.6675 22.4336L29.5525 22.0173C29.9875 22.4261 30.5125 22.7298 31.0825 22.9061L31.1612 23.8811C31.1725 23.9823 31.2325 24.0686 31.3187 24.1098V31.6698H14.9162V20.1536H28.2287L27.6025 20.5848C27.4787 20.6711 27.4412 20.8398 27.5162 20.9711ZM13.585 19.6061C13.585 19.3023 13.8287 19.0586 14.1325 19.0586H28.3112C28.3075 19.0886 28.3075 19.1148 28.3075 19.1411C28.3075 19.2836 28.315 19.4261 28.3337 19.5648H14.6237C14.4625 19.5648 14.3312 19.6961 14.3312 19.8573V31.9586C14.3312 32.1273 14.4625 32.2548 14.6237 32.2548H31.615C31.7762 32.2548 31.9075 32.1273 31.9075 31.9623V24.1511H32.65V32.2136C32.65 32.5173 32.4025 32.7573 32.1025 32.7573H14.1325C13.8287 32.7573 13.585 32.5173 13.585 32.2136V19.6061Z" fill="#569131"/>
<path d="M21.6587 22.7299C21.5462 22.6174 21.3587 22.6174 21.2462 22.7299L18.3062 25.7036C18.1974 25.8199 18.1974 26.0036 18.3062 26.1161L21.2462 29.0936C21.3062 29.1536 21.3774 29.1761 21.4562 29.1761C21.5312 29.1761 21.6024 29.1499 21.6624 29.0936C21.7749 28.9811 21.7787 28.7974 21.6662 28.6811L18.9287 25.9099L21.6662 23.1386C21.7787 23.0261 21.7787 22.8424 21.6587 22.7299ZM25.1012 23.1424C24.7787 23.4649 24.6024 23.8924 24.6024 24.3461C24.6024 24.5074 24.7299 24.6386 24.8949 24.6386C25.0562 24.6386 25.1874 24.5074 25.1874 24.3461C25.1874 24.0499 25.2999 23.7686 25.5137 23.5549C25.9299 23.1424 26.6462 23.1274 27.0887 23.5624C27.3062 23.7836 27.4262 24.0611 27.4262 24.3461C27.4262 24.8636 27.0774 25.3099 26.5824 25.4336C26.0462 25.5686 25.6637 26.0636 25.6637 26.6336V27.4586C25.6637 27.6199 25.7949 27.7511 25.9562 27.7511C26.1174 27.7511 26.2487 27.6199 26.2487 27.4586V26.6299C26.2487 26.3261 26.4474 26.0711 26.7249 25.9999C27.4824 25.8086 28.0112 25.1299 28.0112 24.3424C28.0112 23.8999 27.8312 23.4761 27.5012 23.1461C27.1749 22.8199 26.7512 22.6399 26.3049 22.6399C25.8512 22.6436 25.4237 22.8199 25.1012 23.1424ZM25.9487 28.1524C25.7874 28.1524 25.6562 28.2836 25.6562 28.4449V28.8836C25.6562 29.0486 25.7874 29.1761 25.9487 29.1761C26.1137 29.1761 26.2412 29.0486 26.2412 28.8836V28.4449C26.2412 28.2836 26.1137 28.1524 25.9487 28.1524Z" fill="#569131"/>
</svg>
