<svg width="50" height="51" viewBox="0 0 50 51" fill="none" xmlns="http://www.w3.org/2000/svg">
<circle cx="25" cy="25.1599" r="25" fill="#B5E45E" fill-opacity="0.1"/>
<path d="M25 35.5049C23.6868 35.5049 22.3864 35.2462 21.1732 34.7437C19.9599 34.2411 18.8575 33.5045 17.9289 32.576C16.0536 30.7006 15 28.157 15 25.5049C15 22.8527 16.0536 20.3092 17.9289 18.4338C19.8043 16.5585 22.3478 15.5049 25 15.5049C30.5 15.5049 35 19.5049 35 24.5049C35 26.0962 34.3679 27.6223 33.2426 28.7475C32.1174 29.8727 30.5913 30.5049 29 30.5049H27.2C26.9 30.5049 26.7 30.7049 26.7 31.0049C26.7 31.1049 26.8 31.2049 26.8 31.3049C27.2 31.8049 27.4 32.4049 27.4 33.0049C27.5 34.4049 26.4 35.5049 25 35.5049ZM25 17.5049C22.8783 17.5049 20.8434 18.3477 19.3431 19.848C17.8429 21.3483 17 23.3832 17 25.5049C17 27.6266 17.8429 29.6614 19.3431 31.1617C20.8434 32.662 22.8783 33.5049 25 33.5049C25.3 33.5049 25.5 33.3049 25.5 33.0049C25.5 32.8049 25.4 32.7049 25.4 32.6049C25 32.1049 24.8 31.6049 24.8 31.0049C24.8 29.6049 25.9 28.5049 27.3 28.5049H29C30.0609 28.5049 31.0783 28.0835 31.8284 27.3333C32.5786 26.5832 33 25.5657 33 24.5049C33 20.6049 29.4 17.5049 25 17.5049ZM19.5 23.5049C20.3 23.5049 21 24.2049 21 25.0049C21 25.8049 20.3 26.5049 19.5 26.5049C18.7 26.5049 18 25.8049 18 25.0049C18 24.2049 18.7 23.5049 19.5 23.5049ZM22.5 19.5049C23.3 19.5049 24 20.2049 24 21.0049C24 21.8049 23.3 22.5049 22.5 22.5049C21.7 22.5049 21 21.8049 21 21.0049C21 20.2049 21.7 19.5049 22.5 19.5049ZM27.5 19.5049C28.3 19.5049 29 20.2049 29 21.0049C29 21.8049 28.3 22.5049 27.5 22.5049C26.7 22.5049 26 21.8049 26 21.0049C26 20.2049 26.7 19.5049 27.5 19.5049ZM30.5 23.5049C31.3 23.5049 32 24.2049 32 25.0049C32 25.8049 31.3 26.5049 30.5 26.5049C29.7 26.5049 29 25.8049 29 25.0049C29 24.2049 29.7 23.5049 30.5 23.5049Z" fill="#569131"/>
</svg>
