<svg width="50" height="51" viewBox="0 0 50 51" fill="none" xmlns="http://www.w3.org/2000/svg">
<circle cx="25" cy="25.1699" r="25" fill="#B5E45E" fill-opacity="0.1"/>
<path d="M29.2935 35.7898L15.3176 35.7901C15.0392 35.7893 14.7759 35.7771 14.5064 35.6996C13.6626 35.4569 13.108 34.5378 13.0982 33.6849L13.0975 16.2768C13.0976 15.9766 13.0873 15.6993 13.1509 15.4057C13.3232 14.6106 13.92 13.9419 14.7349 13.7883C14.9537 13.7471 15.2104 13.7711 15.4335 13.7711L21.7103 13.7713L35.6969 13.7714C35.9027 13.7716 36.1238 13.7584 36.3249 13.8077L36.3627 13.8174C37.2308 14.0206 37.8356 14.8529 37.8952 15.7195C37.907 15.8916 37.9016 16.0662 37.9016 16.2386L37.9018 33.2778C37.9018 33.5223 37.9284 33.8139 37.8703 34.052C37.582 35.2327 36.8821 35.7877 35.7065 35.7888L29.2935 35.7898ZM35.1634 15.25L15.0889 15.2532C14.843 15.2638 14.649 15.3922 14.5294 15.6095L14.5207 15.625C14.418 15.8113 14.4753 16.5191 14.475 16.7538L14.4742 18.5249L15.8382 18.5259L36.5206 18.528L36.5201 16.137C36.5193 15.6969 36.4374 15.2456 35.9042 15.2463L35.1634 15.25ZM16.6109 20.0045L14.4741 20.0097L14.473 33.3524C14.4706 33.8524 14.5102 34.298 15.124 34.312L34.3978 34.3134L35.4789 34.3146C35.6529 34.3146 35.8607 34.339 36.0287 34.3006C36.5676 34.1775 36.5219 33.7518 36.5219 33.3473L36.5226 20.0029L16.6109 20.0045Z" fill="#569131"/>
<path d="M16.2838 17.6793C15.3004 17.6607 15.2791 16.1829 16.2488 16.0713C17.1367 16.0311 17.3128 17.5398 16.2838 17.6793ZM20.9537 17.6814C19.9497 17.7128 19.868 16.1761 20.8307 16.0841C21.8017 16.0643 21.8277 17.4928 20.9537 17.6814ZM18.6873 17.6597C17.6975 17.7823 17.5316 16.2709 18.4666 16.0949C19.4197 15.9793 19.5959 17.4029 18.6873 17.6597ZM23.4531 31.892C22.8503 31.9778 22.5856 31.4013 22.6869 30.8958C22.7393 30.6336 22.826 30.3764 22.8906 30.1167L24.4878 23.6556C24.6086 23.1784 24.6673 22.5269 25.2475 22.4048C25.5918 22.37 25.909 22.5949 26.0047 22.9289C26.0515 23.0923 26.0161 23.2858 25.9843 23.4493L24.146 30.8851C24.0246 31.3202 23.9666 31.7685 23.4531 31.892ZM25.8089 31.8988C25.2905 31.9563 24.9605 31.4343 25.0566 30.9565C25.0945 30.7682 25.1536 30.5821 25.2018 30.3961L26.9113 23.542C27.0226 23.0833 27.0906 22.535 27.6457 22.4303C28.3013 22.3615 28.4746 22.9928 28.3688 23.5196L26.5935 30.5974C26.4673 31.0776 26.3933 31.7734 25.8089 31.8988ZM29.6854 30.9756C29.0152 31.2198 28.533 30.4649 28.8404 29.9321C28.9174 29.7988 29.0303 29.6798 29.1315 29.5643L31.1271 27.3161C31.0935 27.2615 31.0378 27.2104 30.9948 27.1624L29.1807 25.0864C28.8397 24.6987 28.5248 24.2705 28.9409 23.7794C29.0781 23.6176 29.2387 23.5483 29.4458 23.5309C29.862 23.5435 30.5076 24.47 30.789 24.7808L32.4462 26.646C33.0737 27.3745 32.6958 27.6931 32.1915 28.2591L30.3404 30.3417C30.143 30.5557 29.9399 30.8324 29.6854 30.9756ZM21.4216 31.0163C21.1296 30.9832 20.9599 30.6718 20.784 30.4702L19.0675 28.5471C18.8281 28.2793 18.5765 28.0123 18.3587 27.7266C17.9724 27.2201 18.4405 26.7776 18.7596 26.4139L20.6626 24.2524C20.9023 23.9833 21.1249 23.6206 21.499 23.5406L21.6293 23.5375C22.0908 23.5432 22.3961 24.063 22.2525 24.4833C22.1972 24.6451 22.0842 24.7806 21.9753 24.9091L19.9226 27.2645C19.9176 27.2707 19.8914 27.2993 19.8912 27.3037C19.8899 27.3307 21.2509 28.8659 21.531 29.1809C21.7491 29.4261 22.0243 29.672 22.1897 29.9551C22.4878 30.4652 22.0428 31.0435 21.4216 31.0163Z" fill="#569131"/>
</svg>
