<svg width="50" height="51" viewBox="0 0 50 51" fill="none" xmlns="http://www.w3.org/2000/svg">
<circle cx="25" cy="25.585" r="25" fill="#B5E45E" fill-opacity="0.1"/>
<path d="M30 35V33C30 31.9391 29.5786 30.9217 28.8284 30.1716C28.0783 29.4214 27.0609 29 26 29H18C16.9391 29 15.9217 29.4214 15.1716 30.1716C14.4214 30.9217 14 31.9391 14 33V35" stroke="#569131" stroke-width="2" stroke-linecap="round" stroke-linejoin="round"/>
<path d="M22 25C24.2091 25 26 23.2091 26 21C26 18.7909 24.2091 17 22 17C19.7909 17 18 18.7909 18 21C18 23.2091 19.7909 25 22 25Z" stroke="#569131" stroke-width="2" stroke-linecap="round" stroke-linejoin="round"/>
<path d="M36 35V33C35.9993 32.1137 35.7044 31.2528 35.1614 30.5523C34.6184 29.8519 33.8581 29.3516 33 29.13" stroke="#569131" stroke-width="2" stroke-linecap="round" stroke-linejoin="round"/>
<path d="M29 17.13C29.8604 17.3503 30.623 17.8507 31.1676 18.5523C31.7122 19.2539 32.0078 20.1168 32.0078 21.005C32.0078 21.8932 31.7122 22.7561 31.1676 23.4577C30.623 24.1593 29.8604 24.6597 29 24.88" stroke="#569131" stroke-width="2" stroke-linecap="round" stroke-linejoin="round"/>
</svg>
