<svg width="50" height="51" viewBox="0 0 50 51" fill="none" xmlns="http://www.w3.org/2000/svg">
<circle cx="25" cy="25.1699" r="25" fill="#B5E45E" fill-opacity="0.1"/>
<path d="M30.25 13.5049H19.75C18.5125 13.5049 17.5 14.5174 17.5 15.7549V35.2549C17.5 36.4924 18.5125 37.5049 19.75 37.5049H30.25C31.4875 37.5049 32.5 36.4924 32.5 35.2549V15.7549C32.5 14.5174 31.4875 13.5049 30.25 13.5049ZM22 14.6299H28V15.3799H22V14.6299ZM25 36.0049C24.6022 36.0049 24.2206 35.8468 23.9393 35.5655C23.658 35.2842 23.5 34.9027 23.5 34.5049C23.5 34.1071 23.658 33.7255 23.9393 33.4442C24.2206 33.1629 24.6022 33.0049 25 33.0049C25.3978 33.0049 25.7794 33.1629 26.0607 33.4442C26.342 33.7255 26.5 34.1071 26.5 34.5049C26.5 34.9027 26.342 35.2842 26.0607 35.5655C25.7794 35.8468 25.3978 36.0049 25 36.0049ZM31 31.5049H19V16.5049H31V31.5049Z" fill="#569131"/>
</svg>
