<svg width="52" height="60" viewBox="0 0 52 60" fill="none" xmlns="http://www.w3.org/2000/svg">
<path d="M24.4463 1.13184C25.4632 0.859307 26.5358 0.85947 27.5527 1.13184V1.13281L27.165 2.58105C27.446 2.65634 27.7214 2.75969 27.9873 2.89062L28.25 3.03125L29.915 3.99219L30.6641 2.69336L33.9951 4.61621L33.2451 5.91504L36.5752 7.83789L37.3252 6.53906V6.53809L40.6543 8.46094L39.9053 9.76074L43.2354 11.6826L43.9854 10.3838L47.3154 12.3057V12.3066L46.5654 13.6055L48.2305 14.5674C48.576 14.7669 48.8888 15.0079 49.1631 15.2822L50.2227 14.2217C50.9669 14.9659 51.5037 15.8935 51.7764 16.9102V16.9111L50.3271 17.2998C50.4275 17.6744 50.4804 18.0651 50.4805 18.4639V20.3867H51.9805V24.2324H50.4805V28.0771H51.9805V31.9229H50.4805V35.7676H51.9805V39.6133H50.4805V41.5361C50.4804 41.9349 50.4275 42.3256 50.3271 42.7002L51.7764 43.0889C51.5039 44.1056 50.9669 45.0329 50.2227 45.7773L49.1631 44.7178C48.9573 44.9235 48.7298 45.1106 48.4834 45.2754L48.2305 45.4326L46.5654 46.3945L47.3154 47.6934L43.9854 49.6162L43.2354 48.3174L39.9053 50.2393L40.6543 51.5381L37.3252 53.4609L36.5752 52.1621L33.2451 54.085L33.9951 55.3838L30.6641 57.3057L29.915 56.0078L28.25 56.9688C27.9045 57.1682 27.5398 57.3185 27.165 57.4189L27.5527 58.8672C26.5356 59.1396 25.4634 59.1398 24.4463 58.8672L24.835 57.4189C24.4602 57.3185 24.0955 57.1682 23.75 56.9688L22.085 56.0078L21.335 57.3057L18.0049 55.3838L18.7549 54.085L15.4248 52.1621L14.6748 53.4609H14.6738L11.3447 51.5381L12.0947 50.2393L8.76465 48.3174L8.01465 49.6162L4.68359 47.6934H4.68457L5.43457 46.3945L3.76953 45.4326L3.5166 45.2754C3.27019 45.1106 3.04265 44.9235 2.83691 44.7178L1.77637 45.7773C1.03232 45.033 0.495081 44.1055 0.222656 43.0889L1.67285 42.7002C1.59752 42.419 1.54881 42.1289 1.5293 41.833L1.51953 41.5361V39.6133H0.0195312V35.7676H1.51953V31.9229H0.0195312V28.0771H1.51953V24.2324H0.0195312V20.3867H1.51953V18.4639C1.51955 18.0651 1.57247 17.6744 1.67285 17.2998L0.223633 16.9111L0.222656 16.9102C0.495217 15.8937 1.03229 14.9659 1.77637 14.2217L2.83691 15.2822C3.04265 15.0765 3.27019 14.8894 3.5166 14.7246L3.76953 14.5674L5.43457 13.6055L4.68457 12.3066L4.68359 12.3057L8.01465 10.3838L8.76465 11.6826L12.0947 9.76074L11.3447 8.46094L14.6738 6.53809L14.6748 6.53906L15.4248 7.83789L18.7549 5.91504L18.0049 4.61621L21.335 2.69336L22.085 3.99219L23.75 3.03125C24.0955 2.8318 24.4602 2.68145 24.835 2.58105L24.4473 1.13281L24.4463 1.13184Z" fill="#A7D789" stroke="#A7D789" stroke-width="3" stroke-dasharray="4 4"/>
</svg>
