<svg width="137" height="152" viewBox="0 0 137 152" fill="none" xmlns="http://www.w3.org/2000/svg">
<path d="M58.75 3.1123C64.5948 -0.262155 71.7538 -0.367738 77.6807 2.7959L78.25 3.1123L126.75 31.1143C132.783 34.5976 136.5 41.0353 136.5 48.002V104.005C136.5 110.754 133.012 117.006 127.309 120.557L126.75 120.892L78.25 148.894C72.4052 152.268 65.2462 152.374 59.3193 149.21L58.75 148.894L10.25 120.892C4.21689 117.408 0.500152 110.971 0.5 104.005V48.002C0.5 41.2529 3.98815 35.0003 9.69141 31.4492L10.25 31.1143L58.75 3.1123ZM78.75 18.0654C72.6055 14.518 65.0794 14.4075 58.8486 17.7334L58.25 18.0654L23.4502 38.1572C17.1075 41.8192 13.2002 48.5872 13.2002 55.9111V96.0947C13.2002 103.19 16.8667 109.763 22.8623 113.496L23.4502 113.849L58.25 133.94C64.3946 137.488 71.9205 137.598 78.1514 134.272L78.75 133.94L113.55 113.849C119.893 110.187 123.8 103.419 123.8 96.0947V55.9111C123.8 48.8161 120.133 42.2429 114.138 38.5098L113.55 38.1572L78.75 18.0654ZM60.75 22.3965C65.3958 19.7143 71.0858 19.63 75.7969 22.1445L76.25 22.3965L111.05 42.4873C115.846 45.2561 118.8 50.3735 118.8 55.9111V96.0947C118.8 101.459 116.028 106.429 111.494 109.252L111.05 109.519L76.25 129.61C71.6043 132.292 65.9141 132.376 61.2031 129.861L60.75 129.61L25.9502 109.519C21.1545 106.75 18.2002 101.632 18.2002 96.0947V55.9111C18.2002 50.5465 20.9725 45.5765 25.5059 42.7539L25.9502 42.4883L60.75 22.3965Z" fill="#A7D789" stroke="#A7D789"/>
</svg>
