<svg width="104" height="118" viewBox="0 0 104 118" fill="none" xmlns="http://www.w3.org/2000/svg">
<path d="M93.7158 23.085L97.2129 25.1025V25.1035L95.9629 27.2686L97.7119 28.2783C98.2875 28.6107 98.8076 29.0126 99.2646 29.4697L101.032 27.7021C102.273 28.943 103.166 30.4906 103.62 32.1855H103.621L101.206 32.832C101.373 33.4566 101.462 34.1085 101.462 34.7734V36.792H103.962V40.8301H101.462V44.8682H103.962V48.9053H101.462V52.9434H103.962V56.9814H101.462V61.0186H103.962V65.0566H101.462V69.0947H103.962V73.1318H101.462V77.1699H103.962V81.208H101.462V83.2266C101.462 83.8915 101.373 84.5434 101.206 85.168L103.62 85.8135C103.166 87.5086 102.273 89.0559 101.032 90.2969L99.2646 88.5303C98.8646 88.9303 98.4163 89.2879 97.9248 89.5938L97.7119 89.7217L95.9629 90.7314L97.2129 92.8965L93.7158 94.9141L92.4668 92.75L88.9697 94.7686L90.2197 96.9336L86.7217 98.9521L85.4727 96.7881L81.9756 98.8066L83.2256 100.972L79.7295 102.99L78.4795 100.825L74.9824 102.845L76.2314 105.009L72.7354 107.028L71.4854 104.863L67.9893 106.882L69.2393 109.047L65.7412 111.065L64.4922 108.901L60.9951 110.92L62.2451 113.085L58.748 115.104L57.498 112.938L55.75 113.948C55.1742 114.281 54.566 114.53 53.9414 114.697L54.5879 117.112C52.8929 117.566 51.1061 117.566 49.4111 117.112L50.0586 114.697C49.434 114.53 48.8258 114.281 48.25 113.948L46.502 112.938L45.252 115.104H45.251L41.7539 113.085L43.0049 110.92L39.5078 108.901L38.2578 111.065L34.7598 109.047L36.0107 106.882L32.5146 104.863L31.2637 107.028L27.7676 105.009L29.0176 102.845L25.5205 100.825L24.2695 102.99L20.7734 100.972H20.7744L22.0244 98.8066L18.5273 96.7881L17.2773 98.9521L13.7793 96.9336H13.7803L15.0303 94.7686L11.5332 92.75L10.2832 94.9141L6.78613 92.8965L8.03711 90.7314L6.28809 89.7217L6.0752 89.5938C5.58367 89.2879 5.13536 88.9303 4.73535 88.5303L2.9668 90.2969C1.72622 89.0559 0.832942 87.5084 0.378906 85.8135L2.79395 85.168C2.64751 84.6216 2.56211 84.0541 2.54297 83.4756L2.53809 83.2266V81.208H0.0380859V77.1699H2.53809V73.1318H0.0380859V69.0947H2.53809V65.0566H0.0380859V61.0186H2.53809V56.9814H0.0380859V52.9434H2.53809V48.9053H0.0380859V44.8682H2.53809V40.8301H0.0380859V36.792H2.53809V34.7734C2.53809 34.1085 2.62655 33.4566 2.79395 32.832L0.378906 32.1855C0.833077 30.4907 1.72619 28.9429 2.9668 27.7021L4.73535 29.4697C5.13536 29.0697 5.58368 28.7121 6.0752 28.4062L6.28809 28.2783L8.03711 27.2686L6.78711 25.1035L6.78613 25.1025L10.2832 23.085L11.5332 25.25L15.0303 23.2314L13.7803 21.0664L13.7793 21.0654L17.2773 19.0469L18.5273 21.2119L22.0244 19.1934L20.7744 17.0283L20.7734 17.0273L24.2695 15.0088L24.2705 15.0098L25.5205 17.1748L29.0176 15.1553L27.7676 12.9902L31.2637 10.9707L31.2646 10.9717L32.5146 13.1367L36.0107 11.1182L34.7607 8.95312L34.7598 8.95215L38.2578 6.93359L39.5078 9.09863L43.0049 7.08008L41.7549 4.91504L41.7539 4.91406L45.251 2.89551L45.252 2.89648L46.502 5.06152L48.25 4.05176C48.8258 3.71933 49.434 3.47006 50.0586 3.30273L49.4121 0.887695L49.4111 0.886719C51.1059 0.432637 52.8931 0.4328 54.5879 0.886719V0.887695L53.9414 3.30273C54.4877 3.4491 55.0217 3.658 55.5322 3.93066L55.75 4.05176L57.498 5.06152L58.748 2.89648V2.89551L62.2451 4.91406V4.91504L60.9951 7.08008L64.4922 9.09863L65.7412 6.93359L69.2393 8.95215V8.95312L67.9893 11.1182L71.4854 13.1367L72.7354 10.9717V10.9707L76.2314 12.9902H76.2324L74.9824 15.1553L78.4795 17.1748L79.7295 15.0098V15.0088L83.2256 17.0273V17.0283L81.9756 19.1934L85.4727 21.2119L86.7217 19.0469L90.2197 21.0654V21.0664L88.9697 23.2314L92.4668 25.25L93.7158 23.085Z" fill="#A7D789" stroke="#A7D789" stroke-width="5" stroke-dasharray="4 4"/>
</svg>
